<svg xmlns="http://www.w3.org/2000/svg" width="2000" height="1333" viewBox="0 0 2000 1333" preserveAspectRatio="xMidYMid slice">
  <defs>
    <linearGradient id="bg" x1="0" y1="0" x2="0" y2="1">
      <stop offset="0" stop-color="#332a1d"/><stop offset="0.55" stop-color="#1c1813"/><stop offset="1" stop-color="#14110e"/>
    </linearGradient>
    <radialGradient id="vig" cx="0.5" cy="0.42" r="0.8">
      <stop offset="0.5" stop-color="#000" stop-opacity="0"/><stop offset="1" stop-color="#14110e" stop-opacity="0.6"/>
    </radialGradient>
    <linearGradient id="surf" x1="0" y1="0" x2="0" y2="1">
      <stop offset="0" stop-color="#8c7048"/><stop offset="0.6" stop-color="#6b5639"/><stop offset="1" stop-color="#332a1d"/>
    </linearGradient>
    <linearGradient id="surfH" x1="0" y1="0" x2="1" y2="0">
      <stop offset="0" stop-color="#8c7048"/><stop offset="0.7" stop-color="#332a1d"/><stop offset="1" stop-color="#1a1610"/>
    </linearGradient>
    <radialGradient id="glow" cx="0.5929809164255857" cy="0.6074284765403717" r="0.8">
    <stop offset="0" stop-color="#b89b6e" stop-opacity="0.6"/>
    <stop offset="0.45" stop-color="#b89b6e" stop-opacity="0.15"/>
    <stop offset="1" stop-color="#b89b6e" stop-opacity="0"/></radialGradient>
    <filter id="gr"><feTurbulence type="fractalNoise" baseFrequency="0.9" numOctaves="2" stitchTiles="stitch"/>
  <feColorMatrix type="matrix" values="0 0 0 0 0  0 0 0 0 0  0 0 0 0 0  0 0 0 0.45 0"/></filter>
  </defs>
  <rect width="2000" height="1333" fill="url(#bg)"/>
  <rect width="2000" height="1333" fill="url(#glow)"/><path d="M0,1178.6775033741724 C600,888.4737517472962 1400,1341.6349988485222 2000,656.1468770133797" fill="none" stroke="#b89b6e" stroke-opacity="0.1920593051519245" stroke-width="1.0860257114982232"/><path d="M0,112.85294098220766 C600,26.56792089776137 1400,399.5127339842962 2000,63.72054560948163" fill="none" stroke="#b89b6e" stroke-opacity="0.1482136494247243" stroke-width="2.3162025349447504"/><path d="M0,192.05502457614057 C600,25.70389642453287 1400,481.78752721455413 2000,476.23900566017255" fill="none" stroke="#b89b6e" stroke-opacity="0.1772863734792918" stroke-width="1.6022075016517192"/><path d="M0,941.3220040609594 C600,855.764743738831 1400,1217.6335203116432 2000,56.89124721405096" fill="none" stroke="#b89b6e" stroke-opacity="0.2994072355143726" stroke-width="1.6868017296073958"/><path d="M0,762.3058888758533 C600,537.870293896799 1400,990.4834906933876 2000,1105.0458730480168" fill="none" stroke="#b89b6e" stroke-opacity="0.12054307759273797" stroke-width="3.0753627183148637"/><path d="M0,678.6001670204569 C600,412.4500711365603 1400,950.9885610232595 2000,719.4163440922275" fill="none" stroke="#b89b6e" stroke-opacity="0.25455493110697713" stroke-width="2.3202270958572626"/><circle cx="223.71261939406395" cy="229.22260637558065" r="0.5516312447842211" fill="#b89b6e" opacity="0.5413885648362339"/><circle cx="574.5107242837548" cy="773.2980286853854" r="1.9144290819764138" fill="#b89b6e" opacity="0.2550050120102242"/><circle cx="1879.1635842062533" cy="565.5389822304714" r="1.3756685746833681" fill="#b89b6e" opacity="0.24259135627653453"/><circle cx="1301.9368583336473" cy="48.18115777778439" r="1.6923957690130922" fill="#b89b6e" opacity="0.4462593523319811"/><circle cx="739.9893729016185" cy="377.23515063663945" r="1.2393427345436066" fill="#b89b6e" opacity="0.4114556583226659"/><circle cx="546.0360157303512" cy="1161.570816831896" r="1.1429909546393902" fill="#b89b6e" opacity="0.3411712257773616"/><circle cx="1267.2057449817657" cy="717.888663870981" r="0.6391368529293686" fill="#b89b6e" opacity="0.37482442986220127"/><circle cx="223.77784084528685" cy="599.6637677124236" r="1.9812626638449728" fill="#b89b6e" opacity="0.09646345018409193"/><circle cx="1901.8069063313305" cy="788.2555335334036" r="1.3833947540260851" fill="#b89b6e" opacity="0.3884140913607553"/><circle cx="1747.5595213472843" cy="1000.9397936500609" r="0.6565448244567961" fill="#b89b6e" opacity="0.24483729357598352"/><circle cx="1494.462389498949" cy="1087.8030884971377" r="0.5798704905435443" fill="#b89b6e" opacity="0.544990753941238"/><circle cx="543.3399872854352" cy="1161.383157556178" r="0.8525863489601762" fill="#b89b6e" opacity="0.2880094237276353"/><circle cx="895.8666953258216" cy="299.77916508936323" r="0.7216002626810223" fill="#b89b6e" opacity="0.09322085804305971"/><circle cx="79.51633771881461" cy="1304.3253716116305" r="1.3412785727065057" fill="#b89b6e" opacity="0.009757423889823258"/><circle cx="1294.171198271215" cy="119.47627177392133" r="0.6435892038047314" fill="#b89b6e" opacity="0.5474589295568877"/><circle cx="1776.5150596387684" cy="13.090509453555569" r="2.1065613358747215" fill="#b89b6e" opacity="0.4563814606284723"/><circle cx="60.498437378555536" cy="903.658294815803" r="0.8517756282351912" fill="#b89b6e" opacity="0.4628583150682971"/><circle cx="56.84606684371829" cy="554.7398492554203" r="1.249664878146723" fill="#b89b6e" opacity="0.07044708754401655"/><circle cx="323.4096304513514" cy="961.0475698297378" r="0.7177234396804124" fill="#b89b6e" opacity="0.45898341224528855"/><circle cx="539.447442162782" cy="426.9264379043598" r="1.7801938879769295" fill="#b89b6e" opacity="0.13907037989702076"/><circle cx="1320.3834807500243" cy="702.7003626697697" r="1.9335519024636598" fill="#b89b6e" opacity="0.415481672459282"/><circle cx="1234.7753699868917" cy="57.190702124964446" r="0.5574563896283508" fill="#b89b6e" opacity="0.26491253402782605"/><circle cx="1738.911603577435" cy="1201.6226592292078" r="1.8198802150785922" fill="#b89b6e" opacity="0.19376387612428517"/><circle cx="676.7216366715729" cy="600.5923503420781" r="1.7228461314924064" fill="#b89b6e" opacity="0.1251719384919852"/><circle cx="387.4070020392537" cy="727.5637539604213" r="1.886916198534891" fill="#b89b6e" opacity="0.12762168019544334"/><circle cx="416.78626649081707" cy="1102.5096488306299" r="0.8655798390507699" fill="#b89b6e" opacity="0.3688272844650783"/><circle cx="1555.0027368590236" cy="40.31376321846619" r="1.8292398848570883" fill="#b89b6e" opacity="0.33311509059276434"/><circle cx="1998.8520652987063" cy="411.6329896694515" r="0.544224310759455" fill="#b89b6e" opacity="0.16575573638547214"/><circle cx="1233.0826041288674" cy="693.886264922563" r="1.6960920273792" fill="#b89b6e" opacity="0.06572633769828827"/><circle cx="811.2567383795977" cy="884.154585076496" r="0.4438315319363028" fill="#b89b6e" opacity="0.4251774258329533"/><circle cx="1885.6664136983454" cy="308.54000264103524" r="2.1850493070203814" fill="#b89b6e" opacity="0.5325680699432269"/><circle cx="1486.8637402541935" cy="383.13065974856727" r="0.9894334336742759" fill="#b89b6e" opacity="0.23324390115449206"/><circle cx="1645.9869262762368" cy="261.57974373875186" r="1.0910576356109232" fill="#b89b6e" opacity="0.08652291344478727"/><circle cx="1175.3266300074756" cy="1301.0517522497103" r="1.9246357103809717" fill="#b89b6e" opacity="0.21049164331052453"/><circle cx="1695.9514082409441" cy="790.3535670540296" r="1.9027499019633978" fill="#b89b6e" opacity="0.349936620623339"/><circle cx="64.50570048764348" cy="718.1520303641446" r="0.5551208582241088" fill="#b89b6e" opacity="0.2541449641226791"/><circle cx="894.8997044935822" cy="447.01490117702633" r="1.5423762497957796" fill="#b89b6e" opacity="0.423976790253073"/><circle cx="32.305006403476" cy="1098.2919516435359" r="1.6038597965613008" fill="#b89b6e" opacity="0.19649595028022307"/><circle cx="733.2475213333964" cy="1059.9487824509852" r="0.914187409169972" fill="#b89b6e" opacity="0.07085959939286113"/><circle cx="1813.792146742344" cy="1170.4529067869298" r="0.5484593549277634" fill="#b89b6e" opacity="0.5400650850846432"/><circle cx="1436.4694408141077" cy="59.787323030410334" r="1.5878732554148884" fill="#b89b6e" opacity="0.5347464844002389"/><circle cx="582.8797616995871" cy="437.35655487445183" r="1.9605527572333812" fill="#b89b6e" opacity="0.24101425108965488"/><circle cx="657.1007664315403" cy="1326.515620386228" r="0.5349956446792931" fill="#b89b6e" opacity="0.34493404440581804"/><circle cx="1914.6272940561175" cy="1052.0791886576917" r="1.6231479555368424" fill="#b89b6e" opacity="0.2997818298987113"/><circle cx="1530.0227021798491" cy="1159.9677701720502" r="1.7035564419813456" fill="#b89b6e" opacity="0.036326079606078567"/><circle cx="1790.7498492859304" cy="1062.370220372919" r="1.8386413912288844" fill="#b89b6e" opacity="0.46010678024031226"/><circle cx="1769.475013948977" cy="1117.1695553606842" r="0.7799926595296711" fill="#b89b6e" opacity="0.23996047098189593"/><circle cx="1133.745247963816" cy="217.48672728636302" r="1.9305320125538858" fill="#b89b6e" opacity="0.2299590142676607"/><circle cx="1986.7185475304723" cy="721.3720971683506" r="0.9915522974915802" fill="#b89b6e" opacity="0.18711925965035336"/><circle cx="417.6766467280686" cy="103.7710658593569" r="1.6337102184537797" fill="#b89b6e" opacity="0.029507582797668876"/><circle cx="21.514127030968666" cy="99.69488500244915" r="1.3900778495240957" fill="#b89b6e" opacity="0.24243446460459384"/><circle cx="531.5858577378094" cy="128.177732180804" r="2.035732178715989" fill="#b89b6e" opacity="0.4597925165551715"/><circle cx="1956.196813378483" cy="673.0222973125055" r="1.821375044528395" fill="#b89b6e" opacity="0.05969433228019625"/><circle cx="399.03466776013374" cy="677.6936158363242" r="1.8276473358273506" fill="#b89b6e" opacity="0.2298821991076693"/><circle cx="1714.8791393265128" cy="337.63790784101" r="0.6070668150670827" fill="#b89b6e" opacity="0.17457873274106533"/><circle cx="1396.866085473448" cy="676.4615085024852" r="1.2045212837401778" fill="#b89b6e" opacity="0.096713639725931"/><circle cx="1453.8950938731432" cy="634.1307628152426" r="2.1933127386961133" fill="#b89b6e" opacity="0.38747217928757893"/><circle cx="815.5147419311106" cy="8.45235293242149" r="0.8607245306950062" fill="#b89b6e" opacity="0.3513355528819375"/><circle cx="518.8783225603402" cy="21.97409194544889" r="1.5977776596322655" fill="#b89b6e" opacity="0.43146082913735884"/><circle cx="1356.1790259554982" cy="1016.3095813123509" r="0.8464456778485328" fill="#b89b6e" opacity="0.4783192003029399"/><circle cx="1344.9220131151378" cy="474.91090390481986" r="1.1912574278190733" fill="#b89b6e" opacity="0.45950850899098444"/><circle cx="1362.2406078502536" cy="785.8971890457906" r="1.3887430645525456" fill="#b89b6e" opacity="0.5274774078978226"/><circle cx="1278.248599730432" cy="729.6333147566766" r="1.5013427681289615" fill="#b89b6e" opacity="0.0369801412569359"/><circle cx="1492.8456950001419" cy="299.3936610368546" r="1.1083357706200332" fill="#b89b6e" opacity="0.22320288012269887"/><circle cx="469.5360977202654" cy="137.72502182307653" r="0.7294116029981523" fill="#b89b6e" opacity="0.24882783839711922"/><circle cx="1524.075788911432" cy="121.8733837348409" r="1.7019979616161436" fill="#b89b6e" opacity="0.22124619060195985"/><circle cx="1430.771904066205" cy="112.06860122387297" r="0.5663013196084649" fill="#b89b6e" opacity="0.3972961261519231"/><circle cx="451.67657546699047" cy="765.304127272917" r="1.3994933440349997" fill="#b89b6e" opacity="0.16871712092543023"/><circle cx="1306.3489766791463" cy="946.5423722404521" r="1.8917270853184163" fill="#b89b6e" opacity="0.3146224811091088"/><circle cx="662.758651189506" cy="229.7804722096771" r="0.917157856747508" fill="#b89b6e" opacity="0.4184816589695402"/><circle cx="637.8707359544933" cy="166.83303958876058" r="0.6638725867960602" fill="#b89b6e" opacity="0.09711009196471423"/><circle cx="602.6465091854334" cy="963.5677510604728" r="0.7527051683980972" fill="#b89b6e" opacity="0.3633357926853933"/><circle cx="186.35808350518346" cy="713.298752075294" r="1.4550643952097744" fill="#b89b6e" opacity="0.3475304818945006"/><circle cx="596.7020015232265" cy="388.3634241465479" r="1.1967640636954457" fill="#b89b6e" opacity="0.3546119449893013"/><circle cx="190.69488067179918" cy="1331.3374020815827" r="0.4211715583689511" fill="#b89b6e" opacity="0.35465489666676153"/><circle cx="422.10496915504336" cy="1082.0610394242685" r="1.1173863099422308" fill="#b89b6e" opacity="0.1085304597276263"/><circle cx="58.04124753922224" cy="592.1880050175823" r="0.567423722660169" fill="#b89b6e" opacity="0.3616702149389312"/><circle cx="763.8487797230482" cy="1202.0690798282158" r="0.532945635681972" fill="#b89b6e" opacity="0.5492256249650382"/><circle cx="848.8684659823775" cy="34.56965022999793" r="1.91567672197707" fill="#b89b6e" opacity="0.4295495097758249"/><circle cx="1637.0759760029614" cy="225.52074097609147" r="0.7300991286057978" fill="#b89b6e" opacity="0.4253232759307139"/>
  <rect width="2000" height="1333" fill="url(#vig)"/>
  <rect width="2000" height="1333" filter="url(#gr)" opacity="0.05"/>
</svg>