<svg xmlns="http://www.w3.org/2000/svg" width="1600" height="2000" viewBox="0 0 1600 2000" preserveAspectRatio="xMidYMid slice">
  <defs>
    <linearGradient id="bg" x1="0" y1="0" x2="0" y2="1">
      <stop offset="0" stop-color="#332a1d"/><stop offset="0.55" stop-color="#1c1813"/><stop offset="1" stop-color="#14110e"/>
    </linearGradient>
    <radialGradient id="vig" cx="0.5" cy="0.42" r="0.8">
      <stop offset="0.5" stop-color="#000" stop-opacity="0"/><stop offset="1" stop-color="#14110e" stop-opacity="0.6"/>
    </radialGradient>
    <linearGradient id="surf" x1="0" y1="0" x2="0" y2="1">
      <stop offset="0" stop-color="#8c7048"/><stop offset="0.6" stop-color="#6b5639"/><stop offset="1" stop-color="#332a1d"/>
    </linearGradient>
    <linearGradient id="surfH" x1="0" y1="0" x2="1" y2="0">
      <stop offset="0" stop-color="#8c7048"/><stop offset="0.7" stop-color="#332a1d"/><stop offset="1" stop-color="#1a1610"/>
    </linearGradient>
    <radialGradient id="glow" cx="0.4468166346661746" cy="0.5861269019311294" r="0.8">
    <stop offset="0" stop-color="#b89b6e" stop-opacity="0.6"/>
    <stop offset="0.45" stop-color="#b89b6e" stop-opacity="0.15"/>
    <stop offset="1" stop-color="#b89b6e" stop-opacity="0"/></radialGradient>
    <filter id="gr"><feTurbulence type="fractalNoise" baseFrequency="0.9" numOctaves="2" stitchTiles="stitch"/>
  <feColorMatrix type="matrix" values="0 0 0 0 0  0 0 0 0 0  0 0 0 0 0  0 0 0 0.45 0"/></filter>
  </defs>
  <rect width="1600" height="2000" fill="url(#bg)"/>
  <rect width="1600" height="2000" fill="url(#glow)"/><path d="M0,21.357869263738394 C480,-168.73182096518576 1120,60.38899578154087 1600,228.55076054111123" fill="none" stroke="#b89b6e" stroke-opacity="0.2916475292807445" stroke-width="1.5025569087592885"/><path d="M0,1117.565884720534 C480,912.4092155974358 1120,1230.0544773880392 1600,747.4484033882618" fill="none" stroke="#b89b6e" stroke-opacity="0.20067176072392612" stroke-width="3.1139493578812107"/><path d="M0,935.8185455203056 C480,699.1762743145227 1120,1014.0940036904067 1600,129.03715623542666" fill="none" stroke="#b89b6e" stroke-opacity="0.3304520446993411" stroke-width="2.670796854305081"/><path d="M0,279.0901055559516 C480,-158.01529721356928 1120,675.5116876307875 1600,872.7970165200531" fill="none" stroke="#b89b6e" stroke-opacity="0.1491774604236707" stroke-width="3.184302945388481"/><path d="M0,707.1358603425324 C480,540.8333964366466 1120,754.8431683890522 1600,428.32046700641513" fill="none" stroke="#b89b6e" stroke-opacity="0.19570444099139422" stroke-width="3.3925633763428777"/><path d="M0,73.867775965482 C480,-135.52408532239497 1120,396.40002025291324 1600,1983.5408572107553" fill="none" stroke="#b89b6e" stroke-opacity="0.23495237170718608" stroke-width="1.9191541676409543"/><circle cx="1595.8705969154835" cy="1384.3779717572033" r="0.5856779684312642" fill="#b89b6e" opacity="0.2744297584751621"/><circle cx="823.0236604809761" cy="1920.26671115309" r="1.2953563468530773" fill="#b89b6e" opacity="0.0030014288146048788"/><circle cx="382.2064131498337" cy="274.1667511872947" r="1.3609555199742318" fill="#b89b6e" opacity="0.4291787495836616"/><circle cx="1090.288158133626" cy="878.9552072994411" r="1.4933947110082957" fill="#b89b6e" opacity="0.36400066784117374"/><circle cx="1361.0390305519104" cy="1390.93196997419" r="1.286302408669144" fill="#b89b6e" opacity="0.13389472216367723"/><circle cx="400.0759970396757" cy="1538.7530624866486" r="1.7186701084952802" fill="#b89b6e" opacity="0.14916582906153053"/><circle cx="1548.4537780284882" cy="339.83922097831964" r="2.0175375362392516" fill="#b89b6e" opacity="0.45592243596911436"/><circle cx="658.3191707730293" cy="1375.136571470648" r="1.9195879158098252" fill="#b89b6e" opacity="0.3354926088708453"/><circle cx="707.9288177192211" cy="1649.5066159404814" r="1.3321747332811356" fill="#b89b6e" opacity="0.5018771425704472"/><circle cx="224.69234056770802" cy="1445.9580439142883" r="1.6550106041599064" fill="#b89b6e" opacity="0.5447501052753069"/><circle cx="1017.9032672196627" cy="1369.4830453023314" r="1.0992710725869985" fill="#b89b6e" opacity="0.23782814533915372"/><circle cx="329.0111117064953" cy="1436.754866503179" r="2.0987411182839426" fill="#b89b6e" opacity="0.18066395244095476"/><circle cx="457.59267359972" cy="1186.9019474834204" r="1.388398705376312" fill="#b89b6e" opacity="0.15999824170721696"/><circle cx="1214.746917411685" cy="394.3219883367419" r="0.6875767305027694" fill="#b89b6e" opacity="0.226429395750165"/><circle cx="769.5761408656836" cy="715.2007450349629" r="0.7797431549988687" fill="#b89b6e" opacity="0.2752374020405114"/><circle cx="973.7033016979694" cy="1248.7012464553118" r="1.9054555777925999" fill="#b89b6e" opacity="0.2724025526549667"/><circle cx="1584.2971991747618" cy="1388.9903384260833" r="1.563303294638172" fill="#b89b6e" opacity="0.42013184082461524"/><circle cx="417.51107685267925" cy="1781.3634043559432" r="1.2718324786052109" fill="#b89b6e" opacity="0.14504617872880773"/><circle cx="7.879968360066414" cy="747.698328923434" r="1.7821626386139542" fill="#b89b6e" opacity="0.13740660659968854"/><circle cx="1229.0529001504183" cy="1220.8864139392972" r="1.979833984375" fill="#b89b6e" opacity="0.1001766886562109"/><circle cx="1056.6381581127644" cy="1126.9293120130897" r="1.559005576884374" fill="#b89b6e" opacity="0.5150442706188187"/><circle cx="649.5931718498468" cy="1103.5260343924165" r="2.1513352158479395" fill="#b89b6e" opacity="0.3859741773805581"/><circle cx="313.55668380856514" cy="1402.5127459317446" r="1.653216891968623" fill="#b89b6e" opacity="0.008393488929141314"/><circle cx="1405.5341225117445" cy="989.0541639178991" r="1.3824339473620058" fill="#b89b6e" opacity="0.0792847830336541"/><circle cx="233.4812730550766" cy="1162.0832555927336" r="0.6003424546215683" fill="#b89b6e" opacity="0.3514319225796499"/><circle cx="136.33692637085915" cy="1334.7456036135554" r="0.9877460811287165" fill="#b89b6e" opacity="0.020348993095103653"/><circle cx="117.39844977855682" cy="1094.7744557633996" r="0.6550643766764552" fill="#b89b6e" opacity="0.2444582411902957"/><circle cx="1277.612180635333" cy="1211.1778957769275" r="0.533949416782707" fill="#b89b6e" opacity="0.012988583371043206"/><circle cx="1533.8385686278343" cy="656.1395097523928" r="1.854169785929844" fill="#b89b6e" opacity="0.33270444376394154"/><circle cx="60.57039313018322" cy="1647.4198931828141" r="1.0751313167624175" fill="#b89b6e" opacity="0.32676560495747253"/><circle cx="644.3065356463194" cy="1395.4986347816885" r="1.9272653170861305" fill="#b89b6e" opacity="0.17495571188628675"/><circle cx="365.4404707252979" cy="1331.4831494353712" r="1.248179638851434" fill="#b89b6e" opacity="0.305551499966532"/><circle cx="843.3062251657248" cy="703.4096163697541" r="0.9531558903865517" fill="#b89b6e" opacity="0.2632534783449956"/><circle cx="1424.2068782448769" cy="474.31128518655896" r="0.6039090256672353" fill="#b89b6e" opacity="0.4569820293458179"/><circle cx="1090.2717344462872" cy="1869.8305510915816" r="1.7559217395726594" fill="#b89b6e" opacity="0.3086790001136251"/><circle cx="1033.3152011036873" cy="851.7032037489116" r="1.8858681982848795" fill="#b89b6e" opacity="0.007186134590301663"/><circle cx="122.80975729227066" cy="151.14187728613615" r="1.0602841101121157" fill="#b89b6e" opacity="0.3136198125896044"/><circle cx="199.07664097845554" cy="1661.0073405317962" r="0.4968870792537928" fill="#b89b6e" opacity="0.294135100429412"/><circle cx="1024.021976441145" cy="1690.3248941525817" r="0.4010954472701997" fill="#b89b6e" opacity="0.46036358494311574"/><circle cx="823.4672039747238" cy="406.06285398826003" r="1.027309559704736" fill="#b89b6e" opacity="0.39195836393628275"/><circle cx="302.205940335989" cy="349.1319278255105" r="1.919885294418782" fill="#b89b6e" opacity="0.3837383691221476"/><circle cx="1318.628840520978" cy="1312.0623752474785" r="1.011354834586382" fill="#b89b6e" opacity="0.4185390005237423"/><circle cx="892.7351396530867" cy="410.29722476378083" r="1.1427824866492302" fill="#b89b6e" opacity="0.05942126768641174"/><circle cx="176.51562057435513" cy="1716.690314002335" r="2.0903270445298405" fill="#b89b6e" opacity="0.2388974574627355"/><circle cx="1428.5491604357958" cy="372.4673790857196" r="1.746018295083195" fill="#b89b6e" opacity="0.17967814004514368"/><circle cx="126.0085579007864" cy="558.3180440589786" r="1.9492018951103094" fill="#b89b6e" opacity="0.33677963928785176"/><circle cx="1168.8557554036379" cy="1398.9753033965826" r="1.8162041491363197" fill="#b89b6e" opacity="0.033177841163706034"/><circle cx="317.6153503358364" cy="1457.8609787859023" r="2.1325329335872083" fill="#b89b6e" opacity="0.42262889390112834"/><circle cx="1317.428719252348" cy="1207.9686122015119" r="1.7185991334728898" fill="#b89b6e" opacity="0.0024065184174105526"/><circle cx="1285.0894752889872" cy="892.1500509604812" r="0.9407228474505246" fill="#b89b6e" opacity="0.507410596148111"/><circle cx="33.66761766374111" cy="465.627521276474" r="1.716783966124058" fill="#b89b6e" opacity="0.0007212190190330148"/><circle cx="507.64758065342903" cy="473.5281723551452" r="0.702186836162582" fill="#b89b6e" opacity="0.5210163359530271"/><circle cx="161.22426502406597" cy="1927.7831064537168" r="1.8168481039348992" fill="#b89b6e" opacity="0.48092677694512537"/><circle cx="1490.107999369502" cy="516.7736909352243" r="1.2001713044010103" fill="#b89b6e" opacity="0.23577784216031433"/><circle cx="1030.4859440773726" cy="201.7630971968174" r="1.2235290944576263" fill="#b89b6e" opacity="0.17875191980274396"/><circle cx="877.1035965532064" cy="1623.0325060896575" r="2.1908542703371494" fill="#b89b6e" opacity="0.008809766545891762"/><circle cx="679.699456691742" cy="14.964684378355742" r="0.7259168971329928" fill="#b89b6e" opacity="0.30783077648375184"/><circle cx="857.4057631194592" cy="1501.4722887426615" r="1.6950677043292672" fill="#b89b6e" opacity="0.07214231775142253"/><circle cx="837.3372185975313" cy="159.54058151692152" r="0.4651102361734957" fill="#b89b6e" opacity="0.1644543574540876"/><circle cx="214.13970924913883" cy="1434.3643733300269" r="0.6886912147514522" fill="#b89b6e" opacity="0.29402740192599597"/><circle cx="24.811115488409996" cy="1864.1821388155222" r="0.7884016739670188" fill="#b89b6e" opacity="0.5030314400093631"/><circle cx="1512.1708396822214" cy="615.2514913119376" r="0.9077725664246827" fill="#b89b6e" opacity="0.44528259445214646"/><circle cx="1570.3088253736496" cy="239.04446652159095" r="1.5274289665743708" fill="#b89b6e" opacity="0.10392521588364617"/><circle cx="1372.6634748280048" cy="1923.6654741689563" r="0.5614115021191538" fill="#b89b6e" opacity="0.3925974699552171"/><circle cx="1387.8393296152353" cy="1220.0269810855389" r="1.2844199694227427" fill="#b89b6e" opacity="0.21346343951299787"/><circle cx="399.4137231260538" cy="1876.7184372991323" r="1.54004627475515" fill="#b89b6e" opacity="0.011145592585671694"/><circle cx="1046.7719785869122" cy="1157.1813090704381" r="1.7134981431532652" fill="#b89b6e" opacity="0.4677124922163785"/><circle cx="1211.9925871491432" cy="373.65350453183055" r="0.9117471437901259" fill="#b89b6e" opacity="0.026601984433364124"/><circle cx="312.43809647858143" cy="58.72655799612403" r="0.497107813321054" fill="#b89b6e" opacity="0.4320555069833063"/><circle cx="463.79634998738766" cy="1422.376299276948" r="1.3221498693805187" fill="#b89b6e" opacity="0.44313399995444347"/><circle cx="1585.4397591203451" cy="1159.311521332711" r="1.2236334776505828" fill="#b89b6e" opacity="0.47818213592981923"/><circle cx="137.46172674000263" cy="1865.8464760519564" r="1.0333229403011501" fill="#b89b6e" opacity="0.2479772289399989"/><circle cx="541.3659058511257" cy="1105.454889126122" r="0.935231124656275" fill="#b89b6e" opacity="0.2995958836632781"/><circle cx="679.9158032983541" cy="222.68737386912107" r="0.6040739861316979" fill="#b89b6e" opacity="0.4015562653541565"/><circle cx="256.8399004638195" cy="1039.9002064950764" r="1.0562692354898902" fill="#b89b6e" opacity="0.32942838089074944"/><circle cx="1514.254542067647" cy="1661.9070735760033" r="1.3548645409755409" fill="#b89b6e" opacity="0.508934135537129"/><circle cx="659.8235487937927" cy="761.7747141048312" r="0.8940862085204572" fill="#b89b6e" opacity="0.0444167934707366"/><circle cx="1521.964943781495" cy="1638.099736534059" r="0.9180630553513766" fill="#b89b6e" opacity="0.42778228498063986"/><circle cx="1125.658369064331" cy="1937.000947073102" r="1.9708290057256819" fill="#b89b6e" opacity="0.19584182844264433"/><circle cx="1071.15497328341" cy="1599.217297974974" r="1.8736068318132313" fill="#b89b6e" opacity="0.4431836988194846"/>
  <rect width="1600" height="2000" fill="url(#vig)"/>
  <rect width="1600" height="2000" filter="url(#gr)" opacity="0.05"/>
</svg>